<?xml version="1.0" encoding="utf-8" ?>
<svg xmlns="http://www.w3.org/2000/svg" xmlns:xlink="http://www.w3.org/1999/xlink" width="1024" height="1024">
	<path fill="#E07A5F" transform="scale(2 2)" d="M129.816 166.777L149.413 166.752C152.737 166.741 156.627 166.355 159.901 166.912C164.362 167.67 164.602 175.365 157.755 175.227L137.903 175.236C134.407 175.246 130.843 175.486 127.361 175.227C121.177 171.901 124.089 167.224 129.816 166.777Z"/>
	<path fill="#E07A5F" transform="scale(2 2)" d="M225.471 389.93C225.723 391.898 225.457 395.606 224.698 397.445C223.437 398.372 174.637 398.144 167.686 397.872C167.334 395.293 167.075 392.486 167.686 389.93L225.471 389.93Z"/>
	<path fill="#3D405B" transform="scale(2 2)" d="M167.686 375.973C186.942 375.762 206.218 376.127 225.471 375.973C225.491 379.689 224.697 386.724 225.471 389.93L167.686 389.93C167.912 385.344 167.83 380.563 167.686 375.973Z"/>
	<path fill="#E07A5F" transform="scale(2 2)" d="M398.324 363.987C401.095 363.951 403.999 363.726 406.75 363.987C406.871 391.391 396.293 397.905 370.083 397.882L349.203 397.871C325.601 397.863 301.818 398.668 278.237 397.872C278.055 395.227 278.027 392.575 278.237 389.93L365.239 389.937C377.458 389.959 385.787 391.451 395.003 382.268C396.249 380.396 397.168 377.217 397.735 375.027C398.338 371.406 398.268 367.652 398.324 363.987Z"/>
	<path fill="#E07A5F" transform="scale(2 2)" d="M177.961 166.777L294.283 166.811C299.348 166.814 304.495 166.524 309.549 166.809C316.719 167.213 317.755 173.894 311.221 175.227L190.674 175.224C186.892 175.226 183.022 175.478 179.257 175.372C172.785 175.189 171.403 167.8 177.961 166.777Z"/>
	<path fill="#E07A5F" transform="scale(2 2)" d="M127.361 187.162C139.876 186.938 152.437 187.157 164.956 187.159L268.764 187.152C272.094 187.151 279.608 186.666 282.414 187.463C286.97 188.758 285.827 193.997 282.329 195.718C280.314 195.932 278.108 195.746 276.075 195.741L137.545 195.728C133.946 195.732 122.57 197.34 124.462 190.468C124.898 188.884 125.986 187.955 127.361 187.162Z"/>
	<path fill="#3D405B" transform="scale(2 2)" d="M278.237 374.259C287.919 373.89 297.756 374.257 307.458 374.259L384.002 374.284C387.67 374.322 391.352 374.717 395.003 374.259C395.971 374.444 396.823 374.647 397.735 375.027C397.168 377.217 396.249 380.396 395.003 382.268C385.787 391.451 377.458 389.959 365.239 389.937L278.237 389.93L278.237 374.259Z"/>
	<path fill="#E07A5F" transform="scale(2 2)" d="M353.151 178.282C420.729 176.97 454.815 253.244 408.59 301.749C414.17 307.36 419.425 315.964 424.729 322.409C431.882 324.359 437.879 327.217 441.08 334.514C451.289 357.784 415.34 375.247 404.217 348.461C403.096 345.212 403.232 341.778 403.26 338.394C397.095 331.55 391.265 324.418 384.892 317.76C360.149 328.684 330.926 322.652 310.533 305.453C261.071 263.737 287.715 183.606 353.151 178.282ZM354.817 187.162C341.713 186.088 326.556 192.931 316.719 201.266C269.331 241.413 300.115 316.386 360.222 314.994C378.971 313.437 394.597 305.877 406.816 291.398C428.51 265.69 425.667 223.957 399.492 202.329C390.559 194.947 366.888 182.974 354.817 187.162ZM421.373 330.822C407.146 334.901 409.348 354.189 424.729 353.348C439.359 350.829 435.804 329.706 421.373 330.822Z"/>
	<path fill="#E07A5F" transform="scale(2 2)" d="M402.331 307.458C403.86 307.865 413.164 321.073 415.298 323.24C414.137 324.217 407.63 330.72 406.75 330.822C403.542 325.745 397.777 318.567 392.954 314.994C395.68 311.961 399.027 309.794 402.331 307.458Z"/>
	<path fill="#3D405B" transform="scale(2 2)" d="M353.151 200.107C364.078 198.103 380.16 203.755 388.678 210.184C425.403 237.9 408.527 295.796 362.813 301.749C293.354 306.076 286.214 205.635 353.151 200.107Z"/>
	<path fill="#E07A5F" transform="scale(2 2)" d="M356.485 278.28C363.086 277.814 364.136 285.353 358.651 287.775C351.881 288.836 350.131 280.878 356.485 278.28Z"/>
	<path fill="#E07A5F" transform="scale(2 2)" d="M356.485 218.552C361.092 218.246 366.333 220.403 367.56 225.308C368.574 229.363 368.496 255.284 367.882 259.821C367.336 263.851 364.281 267.488 360.222 268.361C355.218 268.605 349.788 266.763 348.415 261.383C347.47 257.678 347.554 232.819 348.048 228.253C348.606 223.093 351.271 219.791 356.485 218.552Z"/>
	<path fill="#E07A5F" transform="scale(2 2)" d="M193.159 211.849C209.511 209.318 230.58 222.934 235.27 238.558C242.049 238.747 247.561 236.54 247.967 245.358C248.749 262.344 251.736 266.93 235.27 266.751C234.297 270.355 232.011 273.392 230.082 276.545C242.082 276.885 253.083 283.711 256.227 295.809C262.743 295.782 269.052 295.247 274.153 300.117C280.656 306.324 280.907 316.533 274.532 322.922C269.619 327.846 263.957 327.641 257.465 327.614L257.465 338.394C269.786 344.199 267.507 356.333 267.507 367.567L267.494 401.613C276.569 407.172 285.866 422.75 277.448 431.233C273.177 435.537 266.462 434.278 260.998 434.243L243.323 434.241C237.252 434.268 228.147 435.616 223.643 430.927C214.391 421.295 227.9 406.026 235.27 399.166L235.27 361.209L197.375 361.209L169.91 361.208C165.206 361.204 160.478 361.011 155.779 361.209L155.779 401.024C163.899 405.521 173.109 418.414 169.433 428.18C166.138 436.934 148.245 434.252 140.491 434.251C133.486 434.25 126.15 434.656 119.182 433.82C102.275 431.79 110.249 406.066 123.742 401.024C123.384 391.47 123.738 381.769 123.737 372.202C123.736 357.668 120.809 348.829 133.975 339.039C134.026 334.843 133.983 330.644 133.975 326.448C104.547 333.39 106.684 289.018 133.975 296.915C138.28 284.369 146.165 276.577 160.164 276.545C158.08 273.699 156.36 270.856 155.179 267.523C143.718 267.371 142.667 268.367 142.186 255.855C141.579 240.064 140.983 238.413 155.179 238.558C162.07 223.034 176.104 213.179 193.159 211.849Z"/>
	<path fill="#3D405B" transform="scale(2 2)" d="M150.996 246.828C153.168 247.241 151.784 256.009 151.792 259.109C151.568 259.303 151.719 259.216 151.29 259.255C150.588 258.068 150.987 248.843 150.996 246.828Z"/>
	<path fill="#E07A5F" transform="scale(2 2)" d="M238.761 246.828L239.517 246.998C240.373 248.79 239.902 256.696 239.838 259.109L239.088 258.86C238.228 256.696 238.747 249.524 238.761 246.828Z"/>
	<path fill="#E07A5F" transform="scale(2 2)" d="M127.361 304.247C134.916 304.764 135.045 310.315 133.232 316.895C131.881 318.546 129.374 319.115 127.361 319.497C119.397 316.178 117.701 305.954 127.361 304.247Z"/>
	<path fill="#E07A5F" transform="scale(2 2)" d="M257.465 304.247C267.279 304.066 275.604 307.427 268.54 317.76C265.152 319.963 261.321 319.667 257.465 319.497L257.465 304.247Z"/>
	<path fill="#E07A5F" transform="scale(2 2)" d="M131.176 407.239C148.021 406.7 158.524 405.321 162.355 425.564C158.04 425.709 153.693 425.585 149.375 425.564C144.502 425.56 120.951 426.077 118.427 425.121C113.933 420.287 123.502 408.394 131.176 407.239Z"/>
	<path fill="#E07A5F" transform="scale(2 2)" d="M243.728 406.284C251.301 406.212 260.332 405.545 266.348 411.026C268.497 412.984 275.055 422.697 271.454 425.458C270.402 426.266 260.454 425.561 258.375 425.564L239.629 425.564C237.194 425.58 234.674 425.942 232.259 425.8C224.898 425.368 233.142 407.227 243.728 406.284Z"/>
	<path fill="#E07A5F" transform="scale(2 2)" d="M136.731 347.427C139.567 349.304 140.475 354.028 147.487 358.066L147.487 399.166L143.772 399.166L132.174 399.166C132.166 387.429 128.742 355.23 136.731 347.427Z"/>
	<path fill="#E07A5F" transform="scale(2 2)" d="M254.755 346.388C261.982 350.294 259.639 361.758 259.641 368.525L259.635 398.393C256.37 398.039 253.124 397.791 249.837 397.872C247.801 397.808 245.764 397.846 243.728 397.872L243.728 358.066C248.823 354.229 251.402 351.889 254.755 346.388Z"/>
	<path fill="#E07A5F" transform="scale(2 2)" d="M193.159 220.349C210.729 217.55 229.709 234.502 229.807 252.498C229.852 260.867 225.38 272.999 216.559 275.926C212.575 277.248 202.838 276.565 198.285 276.545L187.139 276.567C172.036 276.58 162.977 273.505 161.072 256.192C159.003 237.381 175.344 222.17 193.159 220.349Z"/>
	<path fill="#3D405B" transform="scale(2 2)" d="M208.612 243.051C219.186 241.841 222.848 255.097 211.713 260.181C199.956 259.74 198.11 247.101 208.612 243.051Z"/>
	<path fill="#3D405B" transform="scale(2 2)" d="M180.352 243.051C191.259 242.37 192.909 258.425 181.684 260.181C170.672 260.458 168.771 245.173 180.352 243.051Z"/>
	<path fill="#3D405B" transform="scale(2 2)" d="M158.671 284.759C162.623 284.464 166.777 284.739 170.754 284.743L218.559 284.747C230.147 284.731 243.929 283.409 248.058 297.769C249.496 302.772 249.476 332.074 248.628 337.762C247.374 346.181 240.854 350.617 233.062 352.743L167.834 352.762C156.261 352.77 144.407 351.389 142.426 336.688C141.677 331.133 141.636 303.879 142.555 299.177C144.144 291.05 150.571 285.815 158.671 284.759Z"/>
	<path fill="#E07A5F" transform="scale(2 2)" d="M165.768 302.741C182.159 302.449 198.552 302.951 214.941 302.76C218.312 302.721 227.66 301.251 229.13 305.432C230.064 308.086 228.431 310.338 225.962 311.094C223.221 311.29 220.37 311.119 217.619 311.113L200.912 311.088C189.906 311.079 178.744 311.518 167.756 311.057C161.219 310.782 159.851 304.546 165.768 302.741Z"/>
	<path fill="#E07A5F" transform="scale(2 2)" d="M166.519 325.255L206.051 325.266C210.155 325.272 227.469 323.289 229.218 328.124C230.298 331.108 228.116 333.103 225.471 333.751L172.81 333.752C170.464 333.75 167.988 333.893 165.66 333.632C160.66 333.072 161.554 326.191 166.519 325.255Z"/>
	<path fill="#E07A5F" transform="scale(2 2)" d="M112.952 398.393C101.582 398.707 87.9724 400.012 79.0385 391.846C68.0687 381.819 70.7326 366.957 70.7316 353.583L70.7168 107.083C70.7128 103.008 70.4998 98.8111 70.9453 94.7627C73.5284 71.2905 97.9643 74.1173 114.513 74.1188L373.042 74.0973C390.279 74.086 406.347 77.6089 406.763 99.637C407.088 116.829 406.741 134.102 406.751 151.302L406.76 169.384C406.762 172.443 407.002 175.716 406.643 178.744C406.021 183.992 401.129 182.733 398.55 179.782L398.324 179.518C397.909 175.16 398.308 170.444 398.311 166.039L398.324 136.734C394.771 136.422 391.152 136.706 387.586 136.719L173.591 136.74C153.753 136.745 133.646 136.32 113.839 136.734C110.229 137.078 106.483 136.701 102.85 136.734L102.883 335.841C102.941 353.019 99.6482 361.303 112.952 374.259C113.068 377.121 112.516 388.512 112.952 389.93C113.507 391.49 112.962 396.547 112.952 398.393Z"/>
	<path fill="#3D405B" transform="scale(2 2)" d="M79.2245 136.734L102.058 136.723C105.95 136.716 109.962 136.468 113.839 136.734C110.229 137.078 106.483 136.701 102.85 136.734L102.883 335.841C102.941 353.019 99.6482 361.303 112.952 374.259C113.068 377.121 112.516 388.512 112.952 389.93C90.8478 390.86 79.2249 390.972 79.2176 366.348L79.2245 136.734Z"/>
	<path fill="#E07A5F" transform="scale(2 2)" d="M97.7045 82.5427L372.597 82.535C396.826 82.5319 398.357 87.9836 398.343 110.975L398.324 128.241L379.616 128.241L79.2245 128.241C79.2141 119.006 79.0605 109.745 79.2274 100.514C79.4401 88.753 85.8076 82.1831 97.7045 82.5427Z"/>
	<path fill="#E07A5F" transform="scale(2 2)" d="M347.052 102.061L365.364 102.048C368.557 102.043 376.193 100.976 378.798 103.276C383.002 106.987 378.728 110.584 373.388 110.601L354.452 110.621C351.55 110.622 343.813 111.517 341.473 109.659C336.148 105.431 342.004 102.304 347.052 102.061Z"/>
	<path fill="#E07A5F" transform="scale(2 2)" d="M108.451 91.833C126.11 91.0959 129.51 114.848 112.952 119.235C93.1127 120.57 90.2353 95.6689 108.451 91.833Z"/>
	<path fill="#3D405B" transform="scale(2 2)" d="M109.352 100.332C116.197 100.208 117.862 109.024 110.6 110.601C103.497 111.687 102.764 102.51 109.352 100.332Z"/>
	<path fill="#E07A5F" transform="scale(2 2)" d="M143.772 91.833C160.265 89.597 164.63 117.822 146.209 119.235C127.672 120.68 124.58 94.6422 143.772 91.833Z"/>
	<path fill="#3D405B" transform="scale(2 2)" d="M144.312 100.332C151.194 100.642 151.875 109.639 145.195 110.601C138.149 110.904 137.423 101.816 144.312 100.332Z"/>
	<path fill="#E07A5F" transform="scale(2 2)" d="M177.224 91.833C194.307 89.4733 198.724 114.992 181.684 119.235C161.63 120.766 158.794 95.6523 177.224 91.833Z"/>
	<path fill="#3D405B" transform="scale(2 2)" d="M177.224 100.332C184.492 100.269 186.923 107.462 180.352 110.601C172.699 112.071 172.063 103.906 177.224 100.332Z"/>
</svg>
